Coordinates
version=1
nRows=19
nColumns=33
inDegrees=yes

Units are S.I. units (second, meters, Newtons, ...)
Angles are in degrees.

endheader
time	ground_thorax_rot_x	ground_thorax_rot_y	ground_thorax_rot_z	ground_thorax_tx	ground_thorax_ty	ground_thorax_tz	clav_prot_r	clav_elev_r	scapula_abduction_r	scapula_elevation_r	scapula_upward_rot_r	scapula_winging_r	shoulder_elv_r	plane_of_elev_r	axial_rot_r	elbow_flexion_r	pro_sup_r	wrist_flex_r	wrist_dev_r	clav_prot_l	clav_elev_l	scapula_abduction_l	scapula_elevation_l	scapula_upward_rot_l	scapula_winging_l	shoulder_elv_l	plane_of_elev_l	axial_rot_l	elbow_flexion_l	pro_sup_l	wrist_flex_l	wrist_dev_l
      1.33000000	      5.36353497	     -2.49059111	     11.66362805	     -0.11774660	      1.04571543	      0.00543075	     12.51086604	    -13.75652766	     24.26423755	     -8.35269096	      5.27540931	     -4.85653039	     54.79033225	     12.02187793	    -18.63421129	    135.31182863	     52.06702040	     38.41833878	    -24.40228009	     10.00513385	     -9.29619266	    -16.24234766	      0.86463931	     -6.12369972	      2.69096952	     57.56461279	     47.43053908	      0.82597222	    116.31736997	     33.13335746	    -18.07539247	    -24.99999983
      1.34000000	      5.36734950	     -2.38450575	     11.64098599	     -0.11757926	      1.04591924	      0.00563843	     12.50733516	    -13.73910765	     24.30186363	     -8.36816858	      5.35739839	     -4.87959751	     54.91053925	     12.04509717	    -18.58816274	    135.23030969	     52.10039685	     38.43508259	    -24.40717664	     10.05700734	     -9.32906573	    -16.28747012	      0.84328353	     -6.23992045	      2.69279327	     57.59286575	     47.47247190	      0.61670641	    116.30423051	     33.14457959	    -18.03796427	    -24.99999983
      1.35000000	      5.34902569	     -2.28108905	     11.65492022	     -0.11743547	      1.04610457	      0.00582755	     12.48997558	    -13.71040535	     24.34086262	     -8.39030088	      5.48314211	     -4.90658249	     55.04656519	     12.09277280	    -18.58286908	    135.14183567	     52.13145834	     38.44445390	    -24.41301888	     10.10478215	     -9.36149903	    -16.32481380	      0.82067649	     -6.35836055	      2.69102107	     57.60092430	     47.50157904	      0.43313797	    116.25262941	     33.14987789	    -17.99918562	    -24.99999983
      1.36000000	      5.31373967	     -2.17315385	     11.67455560	     -0.11731216	      1.04634488	      0.00598966	     12.46786429	    -13.66736429	     24.38859878	     -8.41122926	      5.63960224	     -4.94433528	     55.20072854	     12.14915958	    -18.59938138	    135.00793572	     52.16604039	     38.44477000	    -24.41434923	     10.15664606	     -9.40079868	    -16.36873902	      0.80290845	     -6.47901337	      2.68982038	     57.60794826	     47.54853026	      0.23346532	    116.18745482	     33.15011397	    -17.95514055	    -24.99999983
      1.37000000	      5.27068453	     -2.05355618	     11.70317302	     -0.11720742	      1.04661102	      0.00614152	     12.43933174	    -13.61349504	     24.44454294	     -8.43496411	      5.82951400	     -4.99081243	     55.37033750	     12.22108746	    -18.64342739	    134.84874109	     52.20098606	     38.43640639	    -24.41422563	     10.20831916	     -9.44012399	    -16.41291146	      0.78591100	     -6.59870339	      2.68843787	     57.60735266	     47.60626696	      0.03500833	    116.10462843	     33.14288168	    -17.90829823	    -24.99999983
      1.38000000	      5.22315505	     -1.74361763	     11.56997367	     -0.11682049	      1.04688254	      0.00583873	     12.35035792	    -13.37058026	     24.49192712	     -8.34992278	      6.17755063	     -5.12498608	     55.76153070	     12.13121017	    -18.95128327	    134.81813149	     52.37652574	     38.46271070	    -24.58084748	     10.27012677	     -9.53567716	    -16.42772984	      0.76309676	     -6.84620700	      2.65200217	     57.34381314	     48.18217555	     -0.40032971	    115.81141753	     32.84493332	    -17.74635144	    -24.99999983
      1.39000000	      5.07257130	     -1.71331406	     11.66483407	     -0.11654027	      1.04688870	      0.00572629	     12.40973956	    -13.00595976	     24.75244908	     -8.12922243	      6.46528913	     -5.41674610	     55.57494155	     12.33455636	    -19.29403492	    134.64788908	     53.14699719	     38.38477225	    -24.99999983	     10.12366735	     -9.36016275	    -16.10387853	      0.52737775	     -7.01965624	      2.56556832	     56.40419661	     48.72285169	     -1.54167676	    115.40198214	     35.63859942	    -20.16285079	    -24.99999983
      1.40000000	      5.03139063	     -1.61134851	     11.65560864	     -0.11649526	      1.04724680	      0.00596183	     12.37528977	    -12.94421506	     24.87939713	     -8.19893063	      6.79967172	     -5.49594379	     55.83002022	     12.52249182	    -19.31822740	    134.27860961	     53.19687465	     38.33298692	    -24.98254652	     10.17303986	     -9.37736598	    -16.16940749	      0.51922186	     -7.07188529	      2.58995696	     56.34837688	     48.78118505	     -1.68068479	    115.35508684	     35.60694284	    -20.18626959	    -24.99999983
      1.41000000	      4.95725302	     -1.48090009	     11.67258177	     -0.11645307	      1.04756742	      0.00616347	     12.32534008	    -12.82725568	     25.00094683	     -8.23152968	      7.16641382	     -5.59770817	     56.07131098	     12.68250964	    -19.45501986	    133.90905658	     53.21626250	     38.25700278	    -24.99829779	     10.21096647	     -9.38537771	    -16.22163449	      0.50985807	     -7.11064655	      2.60327606	     56.30876769	     48.84365129	     -1.83658606	    115.27357993	     35.57893130	    -20.20122297	    -24.99999983
      1.42000000	      4.87068806	     -1.33835442	     11.69089789	     -0.11636661	      1.04796654	      0.00624526	     12.26934103	    -12.67155875	     25.14323993	     -8.24772023	      7.58345522	     -5.72324848	     56.32368595	     12.85007982	    -19.64727597	    133.50055978	     53.22046748	     38.16559947	    -24.99999983	     10.25408377	     -9.39345211	    -16.27706698	      0.49551894	     -7.15778803	      2.62436436	     56.25852464	     48.93293416	     -1.99908096	    115.17674154	     35.54981175	    -20.21813923	    -24.99999983
      1.43000000	      4.76469473	     -1.18929811	     11.51810920	     -0.11612302	      1.04783964	      0.00604576	     12.43381599	    -11.95432828	     25.84059941	     -7.87772568	      8.32769393	     -6.37118590	     56.33534767	     13.09915429	    -20.12932434	    133.31419472	     53.04555110	     37.90915511	    -24.99999983	     10.28436387	     -9.08322680	    -16.40378361	      0.31327157	     -6.92850858	      2.79694253	     55.74709644	     49.37775572	     -2.44047265	    114.94973285	     35.22085026	    -20.65859651	    -24.99999983
      1.44000000	      4.65856367	     -1.05409483	     11.70805435	     -0.11622124	      1.04832068	      0.00613306	     12.37137302	    -11.80688962	     25.96890595	     -7.89544969	      8.73324087	     -6.48812786	     56.59044750	     13.21177068	    -20.31937891	    132.72673030	     53.07107954	     37.83629282	    -24.99999983	     10.31953353	     -9.09179492	    -16.42599085	      0.27490809	     -7.03353180	      2.79292587	     55.68000995	     49.34760018	     -2.56768976	    114.86927855	     35.22637798	    -20.67609481	    -24.99999983
      1.45000000	      4.64529601	     -0.84615956	     11.66765653	     -0.11617775	      1.04860425	      0.00619616	     12.33588603	    -11.43513779	     26.32976728	     -7.82911550	      9.45946371	     -6.80388071	     57.01971205	     13.37562255	    -20.59121183	    132.17108160	     53.02804619	     37.86866671	    -24.99999983	     10.36972105	     -9.03826776	    -16.51213731	      0.22922161	     -7.02491593	      2.85295360	     55.47544490	     49.57830582	     -2.72111560	    114.70681152	     35.20988994	    -20.82624018	    -24.99999983
      1.46000000	      4.54467189	     -0.82923645	     11.80004274	     -0.11644552	      1.04830772	      0.00603943	     12.84016739	    -10.28258141	     27.80093795	     -7.19282331	     10.54463136	     -7.97905712	     56.54791397	     13.31133867	    -21.27574303	    131.66290099	     52.51831144	     38.95830885	    -24.99999983	     10.38434506	     -8.53221762	    -16.64953179	     -0.07496739	     -6.67025698	      3.10038038	     54.66997927	     49.74196024	     -3.18582189	    114.50943685	     35.22423249	    -21.84662951	    -24.99999983
      1.47000000	      4.47374999	     -0.76378663	     11.90507115	     -0.11675116	      1.04891046	      0.00609337	     12.74026541	    -10.13436926	     28.05946992	     -7.31692029	     11.26251861	     -8.13386163	     56.92725872	     13.98622774	    -20.78039107	    130.72190417	     52.27480524	     38.74711849	    -24.99999983	     10.41725119	     -8.49477320	    -16.69057077	     -0.12453768	     -6.70472023	      3.12846891	     54.56868371	     49.73493770	     -3.28495414	    114.46736887	     35.28644417	    -21.94569327	    -24.99999983
      1.48000000	      4.46758889	     -0.47815369	     11.90029882	     -0.11638410	      1.04925321	      0.00611493	     12.68245433	     -9.50054585	     28.40092527	     -7.01953406	     11.99289270	     -8.55951397	     57.31318496	     14.08116497	    -20.27702049	    130.39124303	     49.29962225	     36.21199659	    -24.99999983	     10.41814599	     -8.60035728	    -16.70471263	     -0.02069925	     -6.68693921	      3.10229768	     54.31927741	     49.91481299	     -3.59037309	    114.33852659	     35.45930185	    -22.24771996	    -24.99999983
      1.49000000	      4.34008570	     -0.36691573	     12.02477467	     -0.11638158	      1.04968079	      0.00622178	     12.74727747	     -9.32472325	     29.02542582	     -7.15709733	     12.84504786	     -8.87982498	     57.95818593	     13.96977385	    -20.02260472	    129.76647968	     47.89707802	     33.87632365	    -24.99999983	     10.32089646	     -8.49805577	    -16.58923228	     -0.04688028	     -6.53681116	      3.09376028	     54.05503310	     49.95357826	     -3.84242661	    114.15403813	     35.61747042	    -22.70899941	    -24.99999983
      1.50000000	      4.09474386	     -0.17170956	     12.24474973	     -0.11650613	      1.05065410	      0.00633398	     12.61407810	     -9.10678845	     29.23355264	     -7.20799221	     13.54533415	     -9.04065214	     58.32293183	     14.22355327	    -20.36091387	    128.69616331	     47.95213979	     33.63402780	    -24.99999983	     10.39451032	     -8.56564872	    -16.65252074	     -0.06362728	     -6.71249582	      3.09061783	     54.04601638	     49.93114278	     -4.08924177	    114.05334601	     35.65811250	    -22.70290789	    -24.99999983
      1.51000000	      4.08453177	      0.02060120	     12.18234071	     -0.11624977	      1.05081492	      0.00647932	     12.36079921	     -8.01216842	     29.73516863	     -6.76203075	     15.03169200	     -9.70286736	     58.22926464	     14.77701732	    -20.41072896	    127.46737832	     47.81081805	     32.25674282	    -24.99999983	     10.33429100	     -8.45470271	    -16.62025633	     -0.07547232	     -6.51239780	      3.12441109	     53.79476127	     50.14031061	     -4.36677122	    113.84849415	     35.78659640	    -23.29632551	    -24.99999983
